<!-- Generated by IcoMoon.io -->
<svg version="1.1" xmlns="http://www.w3.org/2000/svg" width="512" height="512" viewBox="0 0 512 512">
<title></title>
<g id="icomoon-ignore">
</g>
<path d="M512 256c0-141.385-114.615-256-256-256s-256 114.615-256 256c0 110.027 69.418 203.832 166.843 240.034l-6.843 15.966h192l-6.843-15.966c97.425-36.202 166.843-130.007 166.843-240.034zM243.395 317.413c-11.404-4.894-19.395-16.218-19.395-29.413 0-17.673 14.327-32 32-32s32 14.327 32 32c0 13.195-7.989 24.522-19.393 29.417l-12.607-29.417-12.605 29.413zM269.134 318.646c29.046-6.059 50.866-31.801 50.866-62.646 0-35.347-28.653-64-64-64s-64 28.653-64 64c0 30.846 21.831 56.561 50.88 62.614l-37.312 87.061c-45.615-19.575-77.568-64.892-77.568-117.675 0-70.692 57.308-134 128-134s128 63.308 128 134c0 52.783-31.953 98.1-77.568 117.675l-37.298-87.029zM344.224 493.854l-36.962-86.243c63.223-21.369 108.738-81.173 108.738-151.611 0-88.365-71.634-160-160-160s-160 71.635-160 160c0 70.438 45.515 130.242 108.738 151.611l-36.962 86.243c-79.797-34.244-135.693-113.517-135.693-205.854 0-123.666 100.251-229.917 223.917-229.917s223.917 106.251 223.917 229.917c0 92.337-55.896 171.61-135.693 205.854z"></path>
</svg>
